<svg xmlns="http://www.w3.org/2000/svg" width="215" height="51" fill="none"><path fill="#9241BD" d="M39 50c53.617-8.977 58.542-48.15 75.064-46.518s11.782 21.899 5.957 27.748c7.943-7.89 41.146-39.174 50.043-27.748 7.872 10.11-13.947 23.204-21.641 26.837 15.921-5.817 59.374-7.44 65.726 4.991 6.672 13.058-27.802 12.786-36.539 14.69z"/><path stroke="#EDEFF7" stroke-width="2" d="M82.821 50H7.371a2 2 0 0 1-1.983-1.735L1.253 17.331a2 2 0 0 1 1.626-2.233L78.64 1.39a2 2 0 0 1 2.349 1.797l3.826 44.641A2 2 0 0 1 82.82 50Z"/></svg>