<svg xmlns="http://www.w3.org/2000/svg" width="278" height="325" fill="none"><path fill="#EDEFF7" d="M213.038 67.623c6.772-17.108-15.501-24-24.501-24 9 33-33.099 88.5-21.499 90.5 14.5 2.5 36.17 8.927 31.17-11.573-1.687-6.915 11.329-4.927 14.829-20.427 4.582-20.286-9.5-10.5.001-34.5M52.999 70.623c-6.772-17.108 15.501-24 24.5-24-8.999 33 39.101 99.5 27.501 101.5-14.5 2.5-41.5-2.5-36.5-23 1.687-6.915-12-4.5-15.5-20-4.582-20.286 9.5-10.5-.001-34.5"/><path fill="#fff" d="M225.5 247.656H21c8.5-68 31.8-159 107-157s93 98.499 97.5 157"/><path fill="#F1C1F8" d="M197.513 68.483c-3.098 31.496-8.449 74.439-63.495 69.025-61.396-6.039-56.044-48.982-52.947-80.478 3.098-31.497 31.676-54.466 63.831-51.303 32.154 3.162 55.709 31.259 52.611 62.756"/><circle cx="124" cy="78.623" r="5" fill="#3C3B67"/><circle cx="168" cy="85.623" r="5" fill="#3C3B67"/><path fill="#EDEFF7" d="M86.41 95.184c8.5-8.344 37.999.683 59 0s28.886.5 42.5 11.5c13.613 11 2.255 17.338 3.433 24.736 1.04 6.531 5 2 5 19.5 0 10.5-11.5 14.5-11.5 24.5v.197c.001 9.896.001 16.889-12 22.803-9.214 4.541-15.148 2.163-25 5.5-9.613 3.256-21.999 4.5-30.499-2.5-8.013-6.599-32.77-5.037-28.5-21.5 5.055-19.5-3.97-19-7-29-2.728-9 8.5-9.5 2-25.5-3.64-8.958-9.927-17.971 2.566-30.236M84.5 70.123c-30.426 21.297-28.001-27.5-7.501-47 8.852-8.42 29.001-20.5 33.001-7.5s-5.5 40.5-25.5 54.5M190.59 70.103c0 34.247 23.027-19.722 9.135-41.703-5.999-9.492-13.673-14.65-20.001-8.674s10.866 25.397 10.866 50.377"/><ellipse fill="#F1C1F8" rx="12.92" ry="14.741" transform="matrix(-.90929 .41617 .36676 .93032 79.154 75.713)"/><ellipse fill="#F1C1F8" rx="12.92" ry="14.741" transform="matrix(.90929 .41617 -.36676 .93032 194.154 84.713)"/><circle cx="146.5" cy="96.123" r="6.5" fill="#E384F2"/><path fill="#E384F2" d="M129.048 111.265c-.404-3.136 24.02-.889 21.973 2.276-2.34 3.617-4.792 3.645-9.497 4.25-7.996 1.028-11.753-.909-12.476-6.526"/><path stroke="#EDEFF7" stroke-linecap="round" stroke-width="4" d="M74.5 173.123s-4.5 19.5-7 39.5-4.5 30.5-4.5 30.5"/><path stroke="#EDEFF7" stroke-linecap="round" stroke-width="3" d="M199 146.623c7.265 13.279 22.436 51.069 25 96"/><path fill="#EDEFF7" d="M146.5 324.123c-130.4 0-146.5-28-146.5-81.5h277.5c0 56.5-.6 81.5-131 81.5"/></svg>