<svg xmlns="http://www.w3.org/2000/svg" width="135" height="155" fill="none"><path fill="#81A8E0" d="M68.242 98.737c-22.4-1.2-48.834 14.333-57 25 16 17.5 35.564 34.565 86 27 20-3 31.333-16.333 35.5-27-7-8-42.1-23.8-64.5-25"/><path fill="#F1C1F8" d="M117.94 56.661c.445 28.206-.965 54.161-48.227 54.815-52.715.729-51.306-25.226-51.75-53.432S39.539 6.663 67.147 6.28s50.349 22.174 50.793 50.38"/><ellipse fill="#F1C1F8" rx="11.14" ry="13.046" transform="matrix(.90979 .41663 -.3401 .93978 118.379 71.543)"/><ellipse fill="#F1C1F8" rx="11.139" ry="13.047" transform="matrix(-.89604 .44247 .36896 .93004 16.377 73.07)"/><path fill="#3C3B67" d="M12.375 51.04C11.91 21.4 40.19 2.502 67.092 1.21c22.696-1.09 46.993 6.984 54.153 28.356s4.5 26.01-3.639 29.192-30.198-18.987-38.273-31.14C62.87 50.328 12.783 77.204 12.375 51.04"/><ellipse fill="#fff" rx="13.626" ry="16.348" transform="matrix(.9999 -.01371 .01598 .99986 49.981 73.934)"/><ellipse fill="#fff" rx="13.626" ry="16.348" transform="matrix(.9999 -.01371 .01598 .99986 88.234 73.362)"/></svg>
