<svg xmlns="http://www.w3.org/2000/svg" width="246" height="274" fill="none"><path fill="#81A8E0" d="M245.859 273.207H0c25-138.5 62.984-117 117.859-117s112-20 128 117"/><path fill="#F1C1F8" d="M191.876 88.132c0 39.403-2.6 75.626-70.194 75.626-75.394 0-72.793-36.223-72.793-75.626 0-39.402 32.009-71.344 71.494-71.344s71.493 31.942 71.493 71.344"/><ellipse fill="#F1C1F8" rx="16.497" ry="19.094" transform="matrix(-.99952 -.03096 -.09951 .99504 194.926 110.591)"/><ellipse fill="#F1C1F8" rx="16.497" ry="19.094" transform="matrix(.99952 -.03096 .09951 .99504 43.925 108.591)"/><path fill="#3C3B67" d="M44 88c-5.5-17.5 9-71.213 73-71.213 59.5 0 78.5 43.213 78.5 66.713s-8.257 45.943-27 61-69.623 18.684-98.5 0c-19.83-12.83-20.5-39-26-56.5"/><path stroke="#3C3B67" stroke-linecap="round" stroke-width="4" d="m59.65 221-1.356 50.677M184.976 221l-.44 50.693"/></svg>