<svg xmlns="http://www.w3.org/2000/svg" width="369" height="320" fill="none"><g fill="#fff" clip-path="url(#a)"><path fill-rule="evenodd" d="M200.818 129.241c-1.128-1.1-5.828-6.557-9.4-1.358-4.699 6.721 10.293 12.833 12.784 10.07 2.49-2.764-1.434-6.862-3.337-8.735zM211.604 137.835c-4.066.375-5.476 3.771-3.549 5.55 1.927 1.78 6.58 1.265 7.731-.913 1.551-2.88-1.645-4.871-4.182-4.683zM229.368 135.493c2.35-1.85 5.288-7.025 1.833-9.882-4.699-4.074-14.992 7.587-12.195 11.358 1.88 2.599 6.932 1.194 10.362-1.476M157.44 140.341a41.8 41.8 0 0 0-22.653 13.324c-1.527-4.402-4.911-8.898-4.699-12.739 2.561-4.683 16.026-11.708 18.352-11.146 1.997 1.288 2.82 1.826 5.217 3.629 4.699-2.014 14.78-7.47 16.284-4.683 1.762 3.325-7.05 7.798-12.501 11.568z" clip-rule="evenodd"/><path fill-rule="evenodd" d="M157.745 141.723q.274-.07.517-.211c4.018-2.717 9.564-5.808 11.914-8.571a4.204 4.204 0 0 0 1.034-4.824 2.7 2.7 0 0 0-1.716-1.358 6.2 6.2 0 0 0-3.078 0 77.3 77.3 0 0 0-12.525 5.034c-1.95-1.451-2.796-2.013-4.699-3.208a1.3 1.3 0 0 0-.494-.187 3.6 3.6 0 0 0-1.41 0 19 19 0 0 0-3.924 1.382 56.2 56.2 0 0 0-9.893 5.713 17.2 17.2 0 0 0-4.699 4.684c-.101.179-.158.38-.165.585a12.76 12.76 0 0 0 1.199 5.503c1.057 2.53 2.631 5.176 3.548 7.799a1.34 1.34 0 0 0 1.104.913 1.39 1.39 0 0 0 1.34-.515 39.98 39.98 0 0 1 21.83-12.81zm10.997-12.271a.93.93 0 0 1 0 .796 7 7 0 0 1-1.621 1.897 109 109 0 0 1-10.081 6.884 44.7 44.7 0 0 0-21.665 11.99c-.682-1.522-1.481-3.021-2.162-4.519a12.9 12.9 0 0 1-1.622-5.176 15.6 15.6 0 0 1 3.69-3.536 53.5 53.5 0 0 1 9.399-5.409c.97-.45 1.976-.818 3.008-1.101l.493-.117a47 47 0 0 1 4.7 3.372 1.46 1.46 0 0 0 1.41.188 89.5 89.5 0 0 1 12.736-5.199 6.8 6.8 0 0 1 1.363-.141h.376zM182.607 162.447c-1.575 5.902-2.773 13.301-17.248 21.896-3.361 1.99-12.032 2.763-20.655 10.631-10.41 9.367-17.601 24.963-17.601 24.963s-16.966-13.02-18.141-20.162c-.705-4.309 16.802-27.75 20.867-32.246 10.551-11.709 15.979-17.025 24.227-19.835 14.992-5.105 23.827 2.506 23.827 2.506l30.548-.984 2.045 6.557s-25.285 6.183-27.775 6.674zm-18.658 4.684c4.84-.75 4.699-10.257-1.199-9.367s-5.052 10.374 1.199 9.484z" clip-rule="evenodd"/><path d="M279.326 159.239a2.38 2.38 0 0 1-1.754-.462 2.36 2.36 0 0 1 1.12-4.221l43.918-12.224a2.347 2.347 0 0 1 3.13 2.521 2.34 2.34 0 0 1-1.861 1.975l-43.918 12.411a2 2 0 0 1-.635 0M268.47 136.22a2.36 2.36 0 0 1-2.021-1.148 2.335 2.335 0 0 1 .823-3.208l72.516-42.69a2.35 2.35 0 0 1 1.866-.398 2.345 2.345 0 0 1 1.754 3.005 2.33 2.33 0 0 1-1.27 1.42l-72.47 42.621c-.358.233-.771.37-1.198.398M252.233 116.9a2.35 2.35 0 0 1-1.645-.679 2.337 2.337 0 0 1 0-3.302l31.088-31.637a2.355 2.355 0 0 1 3.843.72 2.33 2.33 0 0 1-.483 2.559l-31.135 31.637a2.3 2.3 0 0 1-.764.517 2.3 2.3 0 0 1-.904.185M231.812 102.311a2.36 2.36 0 0 1-2.258-1.713 2.34 2.34 0 0 1 .214-1.776l42.062-74.304a2.366 2.366 0 0 1 3.22-.866 2.341 2.341 0 0 1 .869 3.208l-42.062 74.257a2.35 2.35 0 0 1-2.045 1.194M208.596 93.108a2.5 2.5 0 0 1-.588 0 2.36 2.36 0 0 1-1.441-1.078 2.34 2.34 0 0 1-.25-1.779l11.608-45.055a2.34 2.34 0 0 1 2.017-1.77 2.4 2.4 0 0 1 .944.084 2.35 2.35 0 0 1 1.441 1.078 2.34 2.34 0 0 1 .251 1.779l-11.703 44.961a2.353 2.353 0 0 1-2.279 1.78M183.782 89.549a2.35 2.35 0 0 1-1.662-.686 2.34 2.34 0 0 1-.688-1.656l-.87-84.865c0-.621.248-1.217.689-1.656a2.356 2.356 0 0 1 3.323 0c.44.44.688 1.035.688 1.656l.869 84.865c0 .62-.247 1.216-.688 1.656a2.35 2.35 0 0 1-1.661.686M158.215 93.108a2.355 2.355 0 0 1-2.35-1.71l-12.971-46.905a2.33 2.33 0 0 1 .118-1.868 2.353 2.353 0 0 1 4.394.604l13.065 46.835a2.34 2.34 0 0 1-1.621 2.88c-.201.09-.416.145-.635.164M135.351 102.241a2.36 2.36 0 0 1-2.021-1.148L90.375 28.686a2.334 2.334 0 0 1 .96-2.988 2.357 2.357 0 0 1 3.082.647l42.955 72.36a2.33 2.33 0 0 1 .255 1.774 2.345 2.345 0 0 1-2.276 1.762M115.495 117.485a2.35 2.35 0 0 1-1.645-.679L78.039 81.821a2.337 2.337 0 0 1 .1-3.181 2.355 2.355 0 0 1 3.19-.145l35.811 34.986a2.336 2.336 0 0 1 0 3.302 2.35 2.35 0 0 1-1.645.702M99.093 137.39a2.36 2.36 0 0 1-1.151-.304l-72.423-40.7a2.342 2.342 0 0 1-.87-3.208 2.365 2.365 0 0 1 3.22-.867l72.375 40.7a2.334 2.334 0 0 1 .799 3.185 2.35 2.35 0 0 1-1.95 1.194M88.8 160.949a2.5 2.5 0 0 1-.587 0L46.27 150.106a2.344 2.344 0 0 1-1.622-2.857 2.34 2.34 0 0 1 1.082-1.436 2.37 2.37 0 0 1 1.785-.25l41.78 10.772c.623.078 1.19.399 1.576.893a2.355 2.355 0 0 1-.416 3.312 2.37 2.37 0 0 1-1.747.479zM85.017 186.333h-.258l-82.668-9.016a2.36 2.36 0 0 1-1.586-.868 2.35 2.35 0 0 1 .366-3.312 2.37 2.37 0 0 1 1.737-.503l82.668 8.992a2.36 2.36 0 0 1 1.624.777 2.34 2.34 0 0 1-.183 3.312 2.36 2.36 0 0 1-1.7.595zM283.321 186.333a2.36 2.36 0 0 1-2.251-1.327 2.33 2.33 0 0 1-.099-1.792 2.356 2.356 0 0 1 2.092-1.564l82.667-8.993a2.36 2.36 0 0 1 1.737.504 2.353 2.353 0 0 1 .366 3.312 2.37 2.37 0 0 1-1.586.868l-82.667 8.992z"/><path fill-rule="evenodd" d="M218.982 146.429c4.136-.304 4.112 3.724 12.219 18.5 6.674 12.154 22.888 37.843 24.979 42.597a27.83 27.83 0 0 1-2.35 27.679c-12.877 19.671-43.566 21.731-59.615 12.927-8.037-4.403-20.467-17.283-17.906-30.209 3.783-19.132 23.428-53.673 24.885-54.001 5.404-1.522 2.35 10.234 8.953 9.648 4.958-.445 7.519-12.271 5.992-18.336-2.139-8.547-2.726-8.266 2.914-8.688zm27.141 82.922c-2.045 4.191-5.17 6.533-10.292 8.805a2 2 0 0 0-1.023 2.634c.215.485.615.864 1.11 1.055a2.01 2.01 0 0 0 1.534-.036c6.18-2.74 9.846-5.644 12.266-10.796a1.963 1.963 0 0 0-.916-2.646 2.01 2.01 0 0 0-2.21.31 2 2 0 0 0-.469.627zm-29.491 5.62a24.28 24.28 0 0 1-15.368-4.684c-5.451-4.402-7.895-11.521-7.237-21.075 1.41-21.076 16.12-23.137 20.584-23.277 10.105-.258 17.883 4.683 20.82 13.465a31.7 31.7 0 0 1 1.316 7.564c.164 1.943.329 3.957.963 4.449a8.53 8.53 0 0 0 5.546 1.545 2.86 2.86 0 0 1 2.514.984 2.78 2.78 0 0 1 .541 2.623c-2.35 7.915-11.585 14.94-18.799 16.977a42.2 42.2 0 0 1-10.88 1.429m-1.856-43.51c-5.217.141-14.099 2.693-15.133 18.032-.517 7.727 1.222 13.254 5.17 16.392 7.425 5.971 20.443 2.342 20.984 2.342a26.34 26.34 0 0 0 13.535-10.023 13.5 13.5 0 0 1-5.099-2.342c-2.609-2.014-2.867-5.292-3.126-8.43a25.4 25.4 0 0 0-1.034-6.229c-2.161-6.44-7.566-9.859-15.297-9.625zm-5.828 10.444c-2.984-.187-3.571 5.34-.399 5.457s4.23-5.199.399-5.457m9.071 0c-3.431 0-3.243 5.363 0 5.176 3.665-.235 2.608-5.199 0-5.176" clip-rule="evenodd"/><path d="M64.362 238.531c-.623 0-1.22-.247-1.661-.686a2.34 2.34 0 0 1-.688-1.656v-26.228c-6.04.773-21.314 1.499-44.39-5.292a50.9 50.9 0 0 0 23.264 17.376l11.444-4.684a2.347 2.347 0 0 1 2.665 1.424 2.34 2.34 0 0 1-.95 2.862l-24.39 10.186a2.355 2.355 0 0 1-2.857-1.346 2.33 2.33 0 0 1-.04-1.687 2.35 2.35 0 0 1 1.11-1.276l6.768-2.81a59.84 59.84 0 0 1-24.862-23.206 2.337 2.337 0 0 1 1.428-3.391 2.35 2.35 0 0 1 1.392.042c32.428 10.913 51.039 6.814 51.227 6.768a2.355 2.355 0 0 1 2.89 2.271v28.991c0 .621-.247 1.217-.688 1.656a2.36 2.36 0 0 1-1.662.686M297.561 238.531a2.36 2.36 0 0 1-1.662-.686 2.34 2.34 0 0 1-.688-1.656v-28.991a2.33 2.33 0 0 1 .893-1.826 2.21 2.21 0 0 1 1.998-.445c.187 0 18.798 4.145 51.226-6.768a2.355 2.355 0 0 1 2.564.709 2.335 2.335 0 0 1 .256 2.64 59.84 59.84 0 0 1-24.861 23.089l6.767 2.81a2.4 2.4 0 0 1 1.309 1.278 2.384 2.384 0 0 1-1.263 3.129 2.4 2.4 0 0 1-1.832.019l-24.438-10.186a2.35 2.35 0 0 1-1.665-2.182 2.34 2.34 0 0 1 .727-1.752 2.355 2.355 0 0 1 2.724-.375l11.444 4.683a50.74 50.74 0 0 0 23.286-17.399c-23.146 6.815-38.373 6.089-44.412 5.316v26.228a2.332 2.332 0 0 1-1.461 2.191 2.4 2.4 0 0 1-.912.174"/><path d="M180.797 245.884a741.3 741.3 0 0 1-151.988-15.339v71.962a741.3 741.3 0 0 0 151.988 15.339 740.4 740.4 0 0 0 152.411-15.409v-72.009a740.3 740.3 0 0 1-152.411 15.456m-3.102 27.82a1.86 1.86 0 0 1 .47-1.499c.51-.3 1.105-.424 1.692-.351a.867.867 0 0 0 .987-.726.5.5 0 0 0 0-.258v-6.533a2.33 2.33 0 0 1 .517-1.733 2.52 2.52 0 0 1 1.645-.422H196.4a2.64 2.64 0 0 1 1.786.422c.348.507.498 1.123.423 1.733v6.603a.915.915 0 0 0 .846.984h.282a3.47 3.47 0 0 1 1.739.398c.349.418.518.957.47 1.499v4.262a1.48 1.48 0 0 1-.47 1.171c-.527.3-1.137.423-1.739.351h-5.17a2.97 2.97 0 0 1-1.739-.375 1.44 1.44 0 0 1-.423-1.171v-8.336h-5.357v8.29a1.33 1.33 0 0 1-.494 1.17 2.8 2.8 0 0 1-1.739.375h-5.028a2.88 2.88 0 0 1-1.692-.398 1.238 1.238 0 0 1-.447-1.171zm-74.513-5.339a1.4 1.4 0 0 1-.611 1.1 1.698 1.698 0 0 1-1.316.375l-2.185-.258-.376 2.834a3.03 3.03 0 0 0 .235 1.873 1.8 1.8 0 0 0 1.292.656c.415.069.79.285 1.057.609a1.38 1.38 0 0 1 .306 1.124l-.658 5.386a1.48 1.48 0 0 1-.54 1.1 1.74 1.74 0 0 1-1.175.352 8.6 8.6 0 0 1-5.1-3.396 8.2 8.2 0 0 1-5.498 2.131 1.7 1.7 0 0 1-1.058-.609 1.61 1.61 0 0 1-.352-1.405l.61-5.058a1.47 1.47 0 0 1 .635-1.147 1.62 1.62 0 0 1 1.175-.328c.492.044.984-.089 1.387-.375a2.64 2.64 0 0 0 .728-1.733l.33-2.833-4.983-.609-1.245 10.327a9.55 9.55 0 0 0 2.35 7.353 13.05 13.05 0 0 0 7.966 3.349l2.514.281c.54.067 1.036.334 1.387.749a1.9 1.9 0 0 1 .399 1.452l-.517 4.239a1.94 1.94 0 0 1-.728 1.451 2.35 2.35 0 0 1-1.504.305l-2.491-.258a16.6 16.6 0 0 1-10.833-5.807l-.54 4.543a1.54 1.54 0 0 1-.705 1.147 1.77 1.77 0 0 1-1.363.305l-5.734-.68a1.66 1.66 0 0 1-1.222-.608 1.9 1.9 0 0 1-.4-1.265l.518-4.473a17.67 17.67 0 0 1-11.984 2.998l-2.656-.305a2.16 2.16 0 0 1-1.222-.609 1.52 1.52 0 0 1-.305-1.264l.564-4.684a1.6 1.6 0 0 1 .61-1.147c.39-.254.852-.377 1.317-.351l2.655.304c2.92.541 5.939.07 8.553-1.335a9.491 9.491 0 0 0 4.042-6.65l1.246-10.327-4.912-.75-.423 2.857a2.73 2.73 0 0 0 .306 1.874c.315.374.76.616 1.245.679a1.55 1.55 0 0 1 1.058.585 1.48 1.48 0 0 1 .352 1.265l-.587 4.964a1.59 1.59 0 0 1-.682 1.288 1.86 1.86 0 0 1-1.175.328 8.34 8.34 0 0 1-4.793-3.255 8.76 8.76 0 0 1-5.757 2.084 1.9 1.9 0 0 1-1.058-.585 1.73 1.73 0 0 1-.282-1.218l.658-5.386a1.5 1.5 0 0 1 .54-1.03c.345-.235.758-.35 1.175-.328a1.89 1.89 0 0 0 1.41-.351 2.83 2.83 0 0 0 .682-1.757l.352-2.833-2.162-.258a1.62 1.62 0 0 1-1.151-.656 1.51 1.51 0 0 1-.329-1.217l.423-3.583c.05-.464.278-.892.634-1.194a1.93 1.93 0 0 1 1.27-.469l14.098 1.686.376-3.067a1.76 1.76 0 0 1 .705-1.148 1.584 1.584 0 0 1 1.316-.328l5.734.703a1.7 1.7 0 0 1 1.245.609 1.58 1.58 0 0 1 .423 1.264l-.376 3.091 14.099 1.663c.481.089.909.357 1.199.749.265.383.375.852.305 1.312zm48.783 5.831a2.34 2.34 0 0 1-.517 1.475 1.93 1.93 0 0 1-1.622.421l-13.276-.796-.259 4.309 11.961.702a2.35 2.35 0 0 1 1.621.516c.283.556.374 1.19.259 1.803l-.282 4.683a2.87 2.87 0 0 1-.447 1.522 2.11 2.11 0 0 1-1.668.375l-11.961-.702-.258 4.215 14.357.843a2.2 2.2 0 0 1 1.551.515c.282.281.376.866.329 1.803l-.282 4.684a2.34 2.34 0 0 1-.517 1.475 1.999 1.999 0 0 1-1.621.421l-38.561-2.341a1.91 1.91 0 0 1-1.457-.586 2.33 2.33 0 0 1-.329-1.522l.282-4.683a2.6 2.6 0 0 1 .517-1.757 2.07 2.07 0 0 1 1.527-.328l14.452.843.235-4.285-12.031-.702a2.04 2.04 0 0 1-1.528-.562 2.8 2.8 0 0 1-.282-1.569l.282-4.684v-.421h-.517a1.686 1.686 0 0 1-1.198-.586 1.52 1.52 0 0 1-.447-1.241l.329-5.433a1.45 1.45 0 0 1 .588-1.171 1.84 1.84 0 0 1 1.245-.398h.353a2.66 2.66 0 0 0 1.48-.585 2.81 2.81 0 0 0 .799-2.014l.423-7.189a1.77 1.77 0 0 1 .54-1.288c.162-.165.356-.294.571-.378s.444-.124.675-.114l5.969.351a1.58 1.58 0 0 1 1.174.632c.309.375.468.851.447 1.335l-.235 3.747 2.679.164.235-3.887c.068-.476.311-.91.681-1.218a1.82 1.82 0 0 1 1.434-.492l5.921.351a1.7 1.7 0 0 1 1.316.633c.281.369.423.825.4 1.288l-.235 3.887 13.276.773a2.55 2.55 0 0 1 1.575.468c.321.56.429 1.217.305 1.85zm24.133.21c.051.52-.101 1.04-.423 1.452a2.1 2.1 0 0 1-1.598.469h-1.128v2.529l1.269-.562c.752-.188 1.269-.141 1.504.234.233.497.33 1.046.282 1.592v4.684c.054.498-.08.999-.376 1.405q-.747.454-1.551.796l-1.128.468v14.051a1.43 1.43 0 0 1-.423 1.171c-.463.285-1.012.4-1.551.327h-7.05a2.36 2.36 0 0 1-1.504-.327 1.433 1.433 0 0 1-.423-1.171v-4.309a2.04 2.04 0 0 1 .447-1.452 2.36 2.36 0 0 1 1.504-.375h.188c.227.02.453-.05.628-.195a.87.87 0 0 0 .312-.577v-4.005l-2.585 1.124a1.13 1.13 0 0 1-1.316-.14 2.1 2.1 0 0 1-.47-1.686v-4.356a1.78 1.78 0 0 1 .329-1.405 10 10 0 0 1 1.598-.984l2.35-1.077v-5.76h-2.491c-.752 0-1.269-.141-1.504-.469a2.03 2.03 0 0 1-.423-1.452v-2.341a2.52 2.52 0 0 1 .423-1.733 1.93 1.93 0 0 1 1.504-.422h2.491v-6.042a2.33 2.33 0 0 1 .329-1.545 2.6 2.6 0 0 1 1.504-.328h4.253a2.35 2.35 0 0 1 1.551.375 1.92 1.92 0 0 1 .423 1.498v6.042h1.128a2.36 2.36 0 0 1 1.598.422c.347.507.497 1.123.423 1.733zm26.623 27.094a1.46 1.46 0 0 1-.564 1.218 2.54 2.54 0 0 1-1.41.468 95.5 95.5 0 0 1-11.584-3.77 33 33 0 0 1-3.69 1.71 20.7 20.7 0 0 1-7.049 2.06 2.2 2.2 0 0 1-1.363-.491 1.5 1.5 0 0 1-.517-1.218v-4.403a1.66 1.66 0 0 1 .517-1.217c.404-.28.873-.449 1.363-.492a15 15 0 0 0 2.773-.468 7.2 7.2 0 0 1-1.175-1.218 6.56 6.56 0 0 1-1.88-3.044c0-.516 0-.867.376-1.031.349-.221.763-.32 1.175-.281h3.807a2.36 2.36 0 0 1 1.221.281q.604.395 1.128.89a15.1 15.1 0 0 0 3.337 2.037 8.68 8.68 0 0 0 5.24-4.168h-14.757a1.93 1.93 0 0 1-1.363-.468 1.68 1.68 0 0 1-.564-1.241v-3.935a1.72 1.72 0 0 1 .564-1.264 2.35 2.35 0 0 1 1.363-.585h20.209c.499.033.968.25 1.316.608.358.334.591.781.658 1.265v3.84a10 10 0 0 1-1.316 3.981 12.6 12.6 0 0 1-3.501 3.958c1.222.257 2.491.538 3.806.866.507.051.992.228 1.41.516a1.47 1.47 0 0 1 .564 1.217zm51.344-1.288a1.11 1.11 0 0 1-1.221.211 32.7 32.7 0 0 1-10.246-7.212 33.3 33.3 0 0 1-9.399 8.336 1.16 1.16 0 0 1-1.222 0 1.48 1.48 0 0 1-.588-1.194l-.282-4.918a1.73 1.73 0 0 1 .306-1.171c.258-.304 1.433-1.311 3.548-3.114a21 21 0 0 0 3.055-3.372 30.4 30.4 0 0 1-4.7-10.234 4.55 4.55 0 0 1-1.927.515 2.04 2.04 0 0 1-1.268-.445 1.65 1.65 0 0 1-.588-1.17v-.797c-.35.11-.714.173-1.081.188l-8.412.492.188 3.231 7.049-.421a2.85 2.85 0 0 1 1.763.281 1.68 1.68 0 0 1 .399 1.428l1.104 19.132a2.47 2.47 0 0 1-.281 1.522 2.64 2.64 0 0 1-1.669.422l-5.076.281a2.8 2.8 0 0 1-1.574-.234 1.9 1.9 0 0 1-.587-1.452l-.235-4.075a1.89 1.89 0 0 1 .423-1.569 2.35 2.35 0 0 1 1.527-.468h.423l-.423-7.166-2.632.164a23.4 23.4 0 0 1-2.068 9.578c-1.645 3.629-3.266 5.503-4.911 5.597a2.17 2.17 0 0 1-1.245-.445 1.6 1.6 0 0 1-.588-1.195l-.305-5.105a1.64 1.64 0 0 1 .329-1.124c.38-.567.703-1.171.963-1.803.45-1.172.773-2.389.964-3.63.235-2.21.235-4.44 0-6.65l-.329-5.901h-1.175a1.98 1.98 0 0 1-1.528-.375 2.34 2.34 0 0 1-.517-1.475l-.211-3.794a2.33 2.33 0 0 1 .329-1.756c.4-.353.923-.538 1.457-.516l4.135-.234-.305-5.55a2.34 2.34 0 0 1 .493-1.311 2.12 2.12 0 0 1 1.41-.585l3.384-.188a1.98 1.98 0 0 1 1.434.422 1.7 1.7 0 0 1 .634 1.241l.329 5.55 4.7-.258a2.2 2.2 0 0 1 1.574.328c.326.515.52 1.102.564 1.71v1.358l.564-.89a18.3 18.3 0 0 0 1.41-3.442 9.3 9.3 0 0 0 .611-3.841v-.843c-.022-.485.137-.96.446-1.335a1.49 1.49 0 0 1 1.128-.632l3.384-.187a1.5 1.5 0 0 1 1.433.468c.282.373.446.821.47 1.288v.749a16.3 16.3 0 0 1-.305 4.286l10.974-.633a2.1 2.1 0 0 1 1.621.328c.377.487.561 1.096.517 1.71l.188 3.278a2.33 2.33 0 0 1-.329 1.522c-.211.352-.775.515-1.574.562h-.564a26.76 26.76 0 0 1-3.643 13.629 18.4 18.4 0 0 0 3.478 2.998 35 35 0 0 1 3.83 2.693c.283.316.442.724.447 1.147l.282 4.918c.079.431-.014.877-.259 1.241zm6.298-34.166a2.17 2.17 0 0 1-.54-1.452l-.423-3.442a4 4 0 0 1 .188-1.756 2.2 2.2 0 0 1 1.48-.586l16.848-1.99a2.36 2.36 0 0 1 1.645.234c.403.471.628 1.067.635 1.686l.399 3.442a2.05 2.05 0 0 1-.258 1.522c-.235.375-.729.562-1.528.656l-16.848 1.967a1.94 1.94 0 0 1-1.598-.281m10.833 17.282a24.8 24.8 0 0 1-1.528 10.21c-1.409 3.653-2.937 5.621-4.511 5.808a2.13 2.13 0 0 1-1.293-.351 1.58 1.58 0 0 1-.658-1.148l-.681-5.831a1.8 1.8 0 0 1 .235-1.147 9.8 9.8 0 0 0 1.057-1.874 7.4 7.4 0 0 0 .823-3.067 22.7 22.7 0 0 0 0-4.379l-1.457-12.248a2.33 2.33 0 0 1 .211-1.358 1.48 1.48 0 0 1 1.199-.702l13.206-1.546a3.2 3.2 0 0 1 2.162.351 2.8 2.8 0 0 1 .916 1.991l1.363 11.568c0 .983 0 1.709-.423 2.084a3.1 3.1 0 0 1-2.044.749zm31.253-9.086a2.2 2.2 0 0 1-1.528.633l-1.762.21 2.162 18.289a1.88 1.88 0 0 1-.449 1.391 1.888 1.888 0 0 1-1.314.647l-2.608.304a1.816 1.816 0 0 1-1.504-.328 1.9 1.9 0 0 1-.728-1.241l-2.139-18.289-2.725.328.329 2.74c.569 4.246.11 8.566-1.34 12.598-1.433 3.63-2.914 5.55-4.535 5.738a1.9 1.9 0 0 1-1.269-.328 1.43 1.43 0 0 1-.658-1.148l-.681-5.831a1.52 1.52 0 0 1 .235-1.147 10 10 0 0 0 1.057-1.873 8.1 8.1 0 0 0 .822-3.396 34 34 0 0 0-.352-6.182l-1.551-13.301a5.4 5.4 0 0 1 .165-2.202c.326-.493.781-.89 1.316-1.147l15.227-6.299a2.35 2.35 0 0 1 1.503-.375c.259.164.447.562.541 1.311l.587 5.012a1.721 1.721 0 0 1-.235 1.311 3.56 3.56 0 0 1-1.433.913l-10.809 4.426.211 1.64 11.044-1.288a2.12 2.12 0 0 1 1.645.234c.306.187.517.773.635 1.662l.399 3.443a2.33 2.33 0 0 1-.258 1.545"/><path d="M242.034 281.291a17.4 17.4 0 0 0 1.551-7.306l-3.948.211a16.7 16.7 0 0 0 2.397 7.095M274.804 273.614l-4.527.531.175 1.488 4.528-.53zM120.9 277.24a8.8 8.8 0 0 1-1.716 1.358l7.355.445.259-4.309-3.901-.234a8.05 8.05 0 0 1-1.997 2.74"/><path d="M182.818 320h-4.042a745.6 745.6 0 0 1-150.39-15.385 2.35 2.35 0 0 1-1.365-.832 2.34 2.34 0 0 1-.515-1.51v-71.915a2.34 2.34 0 0 1 .845-1.847 2.35 2.35 0 0 1 1.975-.495 742.2 742.2 0 0 0 151.612 15.339 737.3 737.3 0 0 0 151.871-15.362 2.35 2.35 0 0 1 2.593 1.283c.15.316.228.662.227 1.012v71.962a2.347 2.347 0 0 1-1.88 2.341A744.5 744.5 0 0 1 182.818 320m-2.021-4.684h1.998a740.5 740.5 0 0 0 148.04-14.963v-67.185a744.8 744.8 0 0 1-148.04 14.87H178.8a745.7 745.7 0 0 1-147.641-14.8v67.185a737.2 737.2 0 0 0 149.638 14.893"/></g><defs><clipPath id="a"><path fill="#fff" d="M0 0h368.338v320H0z"/></clipPath></defs></svg>