<svg xmlns="http://www.w3.org/2000/svg" width="1008" height="464" fill="none"><path fill="url(#a)" fill-opacity=".3" d="M733.499.86h-556.5c-30.5 0-56 25.14-56 56.14s28 49 56 49l28.5.359c15.5-.359 46 6.441 46 39.641s-34 36.359-46 36.359h-147C19.999 182.359-.001 204 0 240s37.999 49.359 58.499 49.359h344.5c7.167 0 35.501 7.641 35.501 35.641s-28.334 36.026-35.501 36.859h-254C130 361.859 85 367 85 413s41.5 50.359 63.999 50.359h770.5C935.5 463.359 976.568 449 975 412s-41.5-50.141-55.501-50.141H828c-7.167 1.834-35.5-9.163-35.5-35.359 0-26 25.667-32.807 35.5-37.141h136.999c14.167.5 42.501-8.4 42.501-48s-28.334-55.833-42.501-59h-348c-12.5 0-42.5-11.359-42.5-35.859s19-40.141 42.5-40.141h116.5c31.5 0 51.5-21.359 51.5-49.859 0-31.025-17-55.64-51.5-55.64"/><defs><linearGradient id="a" x1="506.25" x2="506.25" y1="0" y2="463.375" gradientUnits="userSpaceOnUse"><stop stop-color="#FA91E8" stop-opacity=".6"/><stop offset="1" stop-color="#F6BF6C"/></linearGradient></defs></svg>
