<svg xmlns="http://www.w3.org/2000/svg" width="1699" height="1699" fill="none"><path fill="url(#a)" d="M720.549 127.301C755.78 10.307 895.664-37.282 994.931 33.955L1143.26 140.4a209.13 209.13 0 0 0 121.94 39.229l68.12-.001c104.1 0 179.52 99.244 151.64 199.538-17.78 63.996 6.52 132.269 60.74 170.632l60.13 42.544c110.34 78.065 124.87 236.549 31.28 334.059-58.84 61.294-76.86 152.34-46.4 231.65 66.04 171.92-97.3 346.04-271.58 286.49-74.78-25.55-157.54-8.44-216.06 44.67l-122.689 111.34c-92.402 83.86-239.818 52.41-289.962-61.85-34.682-79.03-119.954-122.99-204.447-105.4l-97.188 20.23c-136.806 28.48-244.374-116.09-177.792-238.95 40.035-73.87 17.831-166.04-51.448-213.58l-91.899-63.065a153.7 153.7 0 0 1-41.9-42.956c-62.11-95.522-2.361-223.053 110.785-236.465l22.896-2.714c102.615-12.164 170.051-113.176 141.941-212.613l-19.946-70.557c-31.179-82.432 42.164-166.321 128.021-146.429l108.147 25.056c87.087 20.176 174.883-30.714 200.659-116.312z"/><defs><radialGradient id="a" cx="0" cy="0" r="1" gradientTransform="rotate(86.281 -10.223 871.803)scale(939.269 958.505)" gradientUnits="userSpaceOnUse"><stop stop-color="#F13D94" stop-opacity=".51"/><stop offset="1" stop-color="#FFE68B" stop-opacity="0"/></radialGradient></defs></svg>
