<svg xmlns="http://www.w3.org/2000/svg" width="20" height="18" fill="none"><path fill="#81A8E0" fill-opacity=".5" d="M13.767 1.571c.765-.841 2.118.044 1.652 1.082l-1.633 3.641a1 1 0 0 0 .7 1.387l3.9.849c1.11.242 1.02 1.856-.111 1.972l-3.97.406a1 1 0 0 0-.851 1.3l1.214 3.8c.347 1.084-1.097 1.813-1.763.89l-2.337-3.234a1 1 0 0 0-1.55-.087l-2.685 2.952c-.765.842-2.118-.044-1.652-1.082l1.633-3.641a1 1 0 0 0-.7-1.386l-3.9-.85C.605 9.33.695 7.716 1.826 7.6l3.97-.407a1 1 0 0 0 .85-1.299L5.432 2.092C5.085 1.008 6.53.28 7.195 1.202l2.337 3.234a1 1 0 0 0 1.55.088z"/></svg>