<svg xmlns="http://www.w3.org/2000/svg" width="22" height="20" fill="none"><path fill="#81A8E0" fill-opacity=".5" d="M13.071 1.164c2.219-1.48 5.129.425 4.658 3.05a3.025 3.025 0 0 0 1.64 3.247c2.39 1.181 2.196 4.654-.313 5.56a3.026 3.026 0 0 0-1.993 3.042c.174 2.662-2.932 4.23-4.97 2.51a3.026 3.026 0 0 0-3.632-.205c-2.218 1.481-5.128-.425-4.658-3.05a3.026 3.026 0 0 0-1.639-3.247c-2.391-1.18-2.196-4.654.313-5.56A3.026 3.026 0 0 0 4.469 3.47C4.296.807 7.401-.76 9.44.96c1.03.87 2.511.953 3.632.204"/></svg>